<!--?xml version="1.0" encoding="UTF-8" standalone="no"?-->

<!-- Generated by graphviz version 2.28.0 (20110507.0327)
 -->
<!-- Title: _anonymous_0 Pages: 1 -->
<svg width="196pt" height="188pt" viewBox="0.00 0.00 196.00 188.00" xmlns="http://www.w3.org/2000/svg" xmlns:xlink="http://www.w3.org/1999/xlink">
<g id="graph1" class="graph" transform="scale(1 1) rotate(0) translate(4 184)">
<title>_anonymous_0</title>
<polygon fill="white" stroke="white" points="-4,5 -4,-184 193,-184 193,5 -4,5"></polygon>
<!-- msp -->
<g id="node1" class="node"><title>msp</title>
<ellipse fill="none" stroke="black" cx="70" cy="-162" rx="27.1994" ry="18"></ellipse>
<text text-anchor="middle" x="70" y="-157.8" font-family="Times,serif" font-size="14.00">msp</text>
</g>
<!-- master -->
<g id="node3" class="node"><title>master</title>
<ellipse fill="none" stroke="black" cx="69" cy="-90" rx="36.1679" ry="18"></ellipse>
<text text-anchor="middle" x="69" y="-85.8" font-family="Times,serif" font-size="14.00">master</text>
</g>
<!-- msp&#45;&gt;master -->
<g id="edge2" class="edge"><title>msp-&gt;master</title>
<path fill="none" stroke="black" d="M69.7528,-143.697C69.6426,-135.983 69.5102,-126.712 69.3873,-118.112"></path>
<polygon fill="black" stroke="black" points="72.8869,-118.053 69.2443,-108.104 65.8876,-118.153 72.8869,-118.053"></polygon>
</g>
<!-- slave -->
<g id="node5" class="node"><title>slave</title>
<ellipse fill="none" stroke="black" cx="155" cy="-90" rx="30.3187" ry="18"></ellipse>
<text text-anchor="middle" x="155" y="-85.8" font-family="Times,serif" font-size="14.00">slave</text>
</g>
<!-- msp&#45;&gt;slave -->
<g id="edge4" class="edge"><title>msp-&gt;slave</title>
<path fill="none" stroke="black" d="M86.3889,-147.503C98.7291,-137.341 115.864,-123.229 129.923,-111.651"></path>
<polygon fill="black" stroke="black" points="132.292,-114.235 137.786,-105.176 127.842,-108.831 132.292,-114.235"></polygon>
</g>
<!-- gui -->
<g id="node9" class="node"><title>gui</title>
<ellipse fill="none" stroke="black" cx="27" cy="-18" rx="27" ry="18"></ellipse>
<text text-anchor="middle" x="27" y="-13.8" font-family="Times,serif" font-size="14.00">gui</text>
</g>
<!-- master&#45;&gt;gui -->
<g id="edge8" class="edge"><title>master-&gt;gui</title>
<path fill="none" stroke="black" d="M59.0466,-72.411C53.8994,-63.8323 47.5145,-53.1908 41.8017,-43.6695"></path>
<polygon fill="black" stroke="black" points="44.7391,-41.7623 36.5929,-34.9881 38.7366,-45.3638 44.7391,-41.7623"></polygon>
</g>
<!-- notifier -->
<g id="node11" class="node"><title>notifier</title>
<ellipse fill="none" stroke="black" cx="111" cy="-18" rx="39.1914" ry="18"></ellipse>
<text text-anchor="middle" x="111" y="-13.8" font-family="Times,serif" font-size="14.00">notifier</text>
</g>
<!-- master&#45;&gt;notifier -->
<g id="edge10" class="edge"><title>master-&gt;notifier</title>
<path fill="none" stroke="black" d="M78.9534,-72.411C84.0271,-63.9549 90.3034,-53.4944 95.953,-44.0783"></path>
<polygon fill="black" stroke="black" points="98.9743,-45.8456 101.118,-35.4699 92.9718,-42.2441 98.9743,-45.8456"></polygon>
</g>
<!-- model -->
<g id="node6" class="node"><title>model</title>
<ellipse fill="none" stroke="black" cx="153" cy="-162" rx="35.2644" ry="18"></ellipse>
<text text-anchor="middle" x="153" y="-157.8" font-family="Times,serif" font-size="14.00">model</text>
</g>
<!-- model&#45;&gt;master -->
<g id="edge6" class="edge"><title>model-&gt;master</title>
<path fill="none" stroke="black" d="M135.186,-146.155C123.381,-136.317 107.709,-123.257 94.5784,-112.315"></path>
<polygon fill="black" stroke="black" points="96.7115,-109.537 86.7886,-105.824 92.2301,-114.914 96.7115,-109.537"></polygon>
</g>
<!-- model&#45;&gt;slave -->
<g id="edge12" class="edge"><title>model-&gt;slave</title>
<path fill="none" stroke="black" d="M153.494,-143.697C153.715,-135.983 153.98,-126.712 154.225,-118.112"></path>
<polygon fill="black" stroke="black" points="157.724,-118.2 154.511,-108.104 150.727,-118 157.724,-118.2"></polygon>
</g>
</g>
</svg>
